# xmcd CD database file
#
# Track frame offsets:
#	182
#	12167
#	24595
#	35162
#	49165
#	60607
#	74507
#	83407
#	92747
#	108720
#	119785
#	131950
#	144180
#	155170
#	168112
#	178337
#	188407
#	201280
#
# Disc length: 2925 seconds
#
# Revision: 2
# Processed by: cddbd v1.5.2PL0 Copyright (c) Steve Scherf et al.
# Submitted via: CDex 1.70beta2
#
DISCID=050b6b12
DTITLE=Burl Ives - Greatest Hits
DYEAR=1900
DGENRE=
TTITLE0=Big Rock Candy Mountain
TTITLE1=Blue Tail Fly
TTITLE2=Lavender Blue (Dilly Dilly)
TTITLE3=One Hour Ahead Of The Posse
TTITLE4=On Top Of Ol' Smoky
TTITLE5=True Love Goes On And On
TTITLE6=Polly Wolly Doodle
TTITLE7=A Little Bitty Tear
TTITLE8=Royal Telephone
TTITLE9=Home On The Range
TTITLE10=Funny Way Of Laughin'
TTITLE11=Call Me Mr In-Between
TTITLE12=Pearly Shells (Popo  O Ewa)
TTITLE13=It Never Happens
TTITLE14=My Heart Stood Still
TTITLE15=By The Light Of The Silvery Moon
TTITLE16=Beautiful Brown Eyes
TTITLE17=This Is All I Ask
EXTD=
EXTT0=
EXTT1=
EXTT2=
EXTT3=
EXTT4=
EXTT5=
EXTT6=
EXTT7=
EXTT8=
EXTT9=
EXTT10=
EXTT11=
EXTT12=
EXTT13=
EXTT14=
EXTT15=
EXTT16=
EXTT17=
PLAYORDER=
